<svg id="Capa_1" enable-background="new 0 0 513.169 513.169" height="512" viewBox="0 0 513.169 513.169" width="512" xmlns="http://www.w3.org/2000/svg"><path d="m256.584 19.818-256.584 473.533h513.169zm91.783 253.349c-3.772-3.153-7.795-6.316-12.053-9.4-27.869-20.183-56.449-30.416-84.947-30.416-26.596 0-53.263 8.917-79.357 26.511l84.574-156.083zm-128.749 6.455c-5.042 6.693-8.034 15.018-8.034 24.044 0 22.091 17.909 40 40 40s40-17.909 40-40c0-8.917-2.92-17.149-7.853-23.801 19.451 7.707 39.295 22.231 59.344 43.486-31.306 33.19-62.12 50-91.708 50-29.586 0-60.403-16.813-91.708-50 20.259-21.478 40.311-36.086 59.959-43.729zm-93.997 65.853c7.963 8.916 22.152 23.955 40.8 37.459 27.869 20.183 56.449 30.416 84.946 30.416 28.498 0 57.078-10.233 84.947-30.416 21.911-15.868 37.671-33.857 44.399-41.537.807-.921 1.863-2.223 2.789-3.387l62.498 115.341h-378.831z"/></svg>